<mxfile host="app.diagrams.net" agent="Mozilla/5.0 (Windows NT 10.0; Win64; x64) AppleWebKit/537.36 (KHTML, like Gecko) Chrome/135.0.0.0 Safari/537.36" version="26.2.14">
  <diagram id="Gg9W9sCgT_tZ-3l7X1pt" name="Діаграма компонентів">
    <mxGraphModel dx="1042" dy="596" grid="1" gridSize="10" guides="1" tooltips="1" connect="1" arrows="1" fold="1" page="1" pageScale="1" pageWidth="850" pageHeight="1100" math="0" shadow="0">
      <root>
        <mxCell id="0" />
        <mxCell id="1" parent="0" />
        <mxCell id="FYgTi4WAdvoM94xnhLjQ-1" value="&lt;&lt;Application&gt;&gt;&#xa;UI Layer" style="html=1;dropTarget=0;whiteSpace=wrap;fontSize=14;" parent="1" vertex="1">
          <mxGeometry x="320" y="100" width="200" height="120" as="geometry" />
        </mxCell>
        <mxCell id="FYgTi4WAdvoM94xnhLjQ-2" value="" style="shape=module;jettyWidth=8;jettyHeight=4;" parent="FYgTi4WAdvoM94xnhLjQ-1" vertex="1">
          <mxGeometry x="1" width="20" height="20" relative="1" as="geometry">
            <mxPoint x="-27" y="7" as="offset" />
          </mxGeometry>
        </mxCell>
        <mxCell id="FYgTi4WAdvoM94xnhLjQ-3" value="Classes:&#xa;- LoginView&#xa;- OrderView&#xa;- MedicineView&#xa;- UserProfileView&#xa;- AdminDashboardView" style="text;align=left;whiteSpace=wrap;html=1;fontSize=12;" parent="1" vertex="1">
          <mxGeometry x="530" y="100" width="190" height="75" as="geometry" />
        </mxCell>
        <mxCell id="FYgTi4WAdvoM94xnhLjQ-4" value="&lt;&lt;MainProgram&gt;&gt;&#xa;Business Logic Layer" style="html=1;dropTarget=0;whiteSpace=wrap;fontSize=14;" parent="1" vertex="1">
          <mxGeometry x="20" y="230" width="200" height="150" as="geometry" />
        </mxCell>
        <mxCell id="FYgTi4WAdvoM94xnhLjQ-5" value="" style="shape=module;jettyWidth=8;jettyHeight=4;" parent="FYgTi4WAdvoM94xnhLjQ-4" vertex="1">
          <mxGeometry x="1" width="20" height="20" relative="1" as="geometry">
            <mxPoint x="-27" y="7" as="offset" />
          </mxGeometry>
        </mxCell>
        <mxCell id="FYgTi4WAdvoM94xnhLjQ-6" value="Classes:&#xa;- User&#xa;- UserRole&#xa;- Medicine&#xa;- Category&#xa;- Order&#xa;- OrderManager&#xa;- StockManager" style="text;align=left;whiteSpace=wrap;html=1;fontSize=12;" parent="1" vertex="1">
          <mxGeometry x="60" y="107.5" width="190" height="105" as="geometry" />
        </mxCell>
        <mxCell id="FYgTi4WAdvoM94xnhLjQ-7" value="&lt;&lt;DLL&gt;&gt;&#xa;Data Access Layer" style="html=1;dropTarget=0;whiteSpace=wrap;fontSize=14;" parent="1" vertex="1">
          <mxGeometry x="390" y="245" width="200" height="120" as="geometry" />
        </mxCell>
        <mxCell id="FYgTi4WAdvoM94xnhLjQ-8" value="" style="shape=module;jettyWidth=8;jettyHeight=4;" parent="FYgTi4WAdvoM94xnhLjQ-7" vertex="1">
          <mxGeometry x="1" width="20" height="20" relative="1" as="geometry">
            <mxPoint x="-27" y="7" as="offset" />
          </mxGeometry>
        </mxCell>
        <mxCell id="FYgTi4WAdvoM94xnhLjQ-9" value="Classes:&#xa;- UserDAO&#xa;- MedicineDAO&#xa;- OrderDAO&#xa;- CategoryDAO&#xa;- DatabaseConnector" style="text;align=left;whiteSpace=wrap;html=1;fontSize=12;" parent="1" vertex="1">
          <mxGeometry x="600" y="260" width="190" height="75" as="geometry" />
        </mxCell>
        <mxCell id="FYgTi4WAdvoM94xnhLjQ-10" value="&lt;&lt;Database&gt;&gt;&#xa;Pharmacy Database" style="html=1;dropTarget=0;whiteSpace=wrap;fontSize=14;" parent="1" vertex="1">
          <mxGeometry x="225" y="410" width="200" height="100" as="geometry" />
        </mxCell>
        <mxCell id="FYgTi4WAdvoM94xnhLjQ-11" value="" style="shape=module;jettyWidth=8;jettyHeight=4;" parent="FYgTi4WAdvoM94xnhLjQ-10" vertex="1">
          <mxGeometry x="1" width="20" height="20" relative="1" as="geometry">
            <mxPoint x="-27" y="7" as="offset" />
          </mxGeometry>
        </mxCell>
        <mxCell id="FYgTi4WAdvoM94xnhLjQ-12" value="Tables:&#xa;- Users&#xa;- Medicines&#xa;- Orders&#xa;- Categories" style="text;align=left;whiteSpace=wrap;html=1;fontSize=12;" parent="1" vertex="1">
          <mxGeometry x="440" y="420" width="190" height="60" as="geometry" />
        </mxCell>
        <mxCell id="FYgTi4WAdvoM94xnhLjQ-13" value="" style="endArrow=open;endSize=12;dashed=1;html=1;rounded=0;entryX=1;entryY=0.25;entryDx=0;entryDy=0;exitX=0.5;exitY=1;exitDx=0;exitDy=0;" parent="1" source="FYgTi4WAdvoM94xnhLjQ-1" target="FYgTi4WAdvoM94xnhLjQ-4" edge="1">
          <mxGeometry width="160" relative="1" as="geometry">
            <mxPoint x="340" y="400" as="sourcePoint" />
            <mxPoint x="500" y="400" as="targetPoint" />
          </mxGeometry>
        </mxCell>
        <mxCell id="FYgTi4WAdvoM94xnhLjQ-14" value="&lt;&lt;depends&gt;&gt;" style="edgeLabel;html=1;align=center;verticalAlign=middle;resizable=0;points=[];" parent="FYgTi4WAdvoM94xnhLjQ-13" vertex="1" connectable="0">
          <mxGeometry x="-0.2" y="1" relative="1" as="geometry">
            <mxPoint as="offset" />
          </mxGeometry>
        </mxCell>
        <mxCell id="FYgTi4WAdvoM94xnhLjQ-15" value="" style="endArrow=open;endSize=12;dashed=1;html=1;rounded=0;entryX=0;entryY=0.5;entryDx=0;entryDy=0;exitX=1;exitY=0.5;exitDx=0;exitDy=0;" parent="1" source="FYgTi4WAdvoM94xnhLjQ-4" target="FYgTi4WAdvoM94xnhLjQ-7" edge="1">
          <mxGeometry width="160" relative="1" as="geometry">
            <mxPoint x="120" y="380" as="sourcePoint" />
            <mxPoint x="500" y="400" as="targetPoint" />
          </mxGeometry>
        </mxCell>
        <mxCell id="FYgTi4WAdvoM94xnhLjQ-16" value="&lt;&lt;depends&gt;&gt;" style="edgeLabel;html=1;align=center;verticalAlign=middle;resizable=0;points=[];" parent="FYgTi4WAdvoM94xnhLjQ-15" vertex="1" connectable="0">
          <mxGeometry x="-0.2" y="1" relative="1" as="geometry">
            <mxPoint as="offset" />
          </mxGeometry>
        </mxCell>
        <mxCell id="FYgTi4WAdvoM94xnhLjQ-17" value="" style="endArrow=open;endSize=12;dashed=1;html=1;rounded=0;entryX=0.5;entryY=0;entryDx=0;entryDy=0;exitX=0.5;exitY=1;exitDx=0;exitDy=0;" parent="1" source="FYgTi4WAdvoM94xnhLjQ-7" target="FYgTi4WAdvoM94xnhLjQ-10" edge="1">
          <mxGeometry width="160" relative="1" as="geometry">
            <mxPoint x="340" y="400" as="sourcePoint" />
            <mxPoint x="500" y="400" as="targetPoint" />
          </mxGeometry>
        </mxCell>
        <mxCell id="FYgTi4WAdvoM94xnhLjQ-18" value="&lt;&lt;depends&gt;&gt;" style="edgeLabel;html=1;align=center;verticalAlign=middle;resizable=0;points=[];" parent="FYgTi4WAdvoM94xnhLjQ-17" vertex="1" connectable="0">
          <mxGeometry x="-0.2" y="1" relative="1" as="geometry">
            <mxPoint as="offset" />
          </mxGeometry>
        </mxCell>
        <mxCell id="FYgTi4WAdvoM94xnhLjQ-19" value="Component Diagram for Pharmacy Management System" style="text;html=1;strokeColor=none;fillColor=none;align=center;verticalAlign=middle;whiteSpace=wrap;rounded=0;fontSize=18;fontStyle=1" parent="1" vertex="1">
          <mxGeometry x="200" y="40" width="440" height="30" as="geometry" />
        </mxCell>
      </root>
    </mxGraphModel>
  </diagram>
</mxfile>
